<?xml version="1.0" encoding="UTF-8" standalone="no"?><svg xmlns="http://www.w3.org/2000/svg" viewBox="-7.69 -7.69 65.38 65.38" width="30" height="30"><defs><linearGradient id="abf"><stop offset="0" stop-color="#de5644"/><stop offset=".5" stop-color="#da4531"/><stop offset="1" stop-color="#ce3a28"/></linearGradient><linearGradient id="abe"><stop offset="0" stop-color="#0aa561"/><stop offset=".5" stop-color="#009b58"/><stop offset="1" stop-color="#00914b"/></linearGradient><linearGradient id="abd"><stop offset="0" stop-color="#1a6fef"/><stop offset=".25" stop-color="#1e72ef"/><stop offset=".5" stop-color="#166bec"/><stop offset=".75" stop-color="#1267e9"/><stop offset="1" stop-color="#1063e5" stop-opacity=".87"/></linearGradient><linearGradient id="abc"><stop offset="0" stop-color="#ffc01a"/><stop offset=".5" stop-color="#ffba03"/><stop offset="1" stop-color="#ffb300"/></linearGradient><linearGradient id="abb"><stop offset="0" stop-color="#de5744"/><stop offset=".5" stop-color="#db4632"/><stop offset="1" stop-color="#d13d29"/></linearGradient><linearGradient id="aba"><stop offset="0" stop-color="#196eef"/><stop offset=".5" stop-color="#186dee"/><stop offset="1" stop-color="#1065e7"/></linearGradient></defs><g transform="matrix(.08402 0 0 .08642 1.401 5.241)" overflow="visible" fill="#fff"><path d="M558.72 303.68H534.231c-.761-4.06-1.94-6.92-3.551-8.53-2.62-2.619-7.09-3.97-13.26-3.97-6.08 0-10.3 1.01-12.66 3.04-1.779 1.521-2.71 3.63-2.71 6.25 0 3.71 5.16 6.67 15.37 8.95 11.66 2.53 20.021 4.729 25.17 6.5 1.351.51 2.53.93 3.38 1.35 10.391 4.9 15.54 12.34 15.54 22.301 0 12.159-5.069 21.029-15.12 26.6-1.27.68-2.449 1.27-3.8 1.86-6.5 2.79-14.1 4.22-22.63 4.22-12.75 0-23.06-2.28-30.91-6.76-4.939-2.87-8.63-6.48-11.09-10.83-2.46-4.351-3.69-9.431-3.69-15.261h25.671c0 4.391 1.609 7.86 4.729 10.221 3.13 2.45 8.45 3.72 15.96 3.72 5.66 0 9.88-1.19 12.67-3.55 2.2-1.86 3.21-3.891 3.21-6.25 0-3.97-5.06-7.09-15.12-9.29-15.029-3.21-24.489-5.83-28.37-7.69-10.3-4.81-15.369-12.239-15.369-22.55 0-8.27 2.619-15.28 8.02-21.02 6.76-7.181 16.89-10.73 30.32-10.73 11.06 0 19.93 1.61 26.6 4.73.59.25 1.101.51 1.61.85 4.81 2.61 8.439 6.08 10.87 10.39 2.429 4.299 3.649 9.458 3.649 15.449zM545.63 243.89c0-.51-.08-.93-.34-1.27-.25-.42-.59-.681-1.09-.84-.34-.091-.851-.171-1.61-.261H538.71v4.73h3.88c1.101-.08 1.86-.25 2.28-.67.51-.43.76-1.019.76-1.689zm2.03-2.54c.51.681.76 1.44.76 2.28 0 1.18-.42 2.2-1.27 3.04-.841.85-1.94 1.36-3.29 1.439.59.25 1.01.511 1.35.841l2.36 3.13 1.859 3.12h-3.04l-1.439-2.53c-.92-1.6-1.681-2.79-2.36-3.38-.08-.08-.17-.17-.34-.25l-2.02-.59h-1.521v6.75h-2.54v-15.87h5.49c.34 0 .68.08.93.08 1.351 0 2.36.17 3.04.42.841.26 1.521.76 2.031 1.52z"/><path d="M554.84 247.1c0-2.2-.51-4.22-1.609-6.17a11.901 11.901 0 0 0-4.561-4.56c-1.939-1.011-3.97-1.601-6-1.601h-.08c-2.03 0-4.05.59-5.99 1.601a11.847 11.847 0 0 0-4.569 4.56c-1.09 1.95-1.681 3.97-1.681 6.17 0 2.11.591 4.13 1.681 6.08 1.02 1.851 2.54 3.38 4.479 4.47a12.11 12.11 0 0 0 6.08 1.61h.08c2.12 0 4.14-.51 6.09-1.61 1.94-1.09 3.46-2.619 4.471-4.47 1.099-1.951 1.609-3.97 1.609-6.08zm2.45 0c0 2.45-.6 4.9-1.95 7.26-1.26 2.36-3.04 4.141-5.399 5.4-2.37 1.36-4.73 1.95-7.271 1.95h-.08c-2.53 0-4.899-.59-7.26-1.95-2.37-1.26-4.14-3.04-5.41-5.4a14.416 14.416 0 0 1-1.939-7.26c0-2.62.59-5.069 1.939-7.439 1.35-2.36 3.13-4.13 5.49-5.4 2.37-1.27 4.729-1.86 7.18-1.939h.08c2.45 0 4.82.67 7.18 1.939 2.37 1.271 4.23 3.04 5.49 5.4 1.35 2.369 1.95 4.818 1.95 7.439zM413.63 243.3h-42.05l-66.21-110.38-50.16-83.52 50.16-30.15 31.58-19 76.68 127.52 69.34 115.53zM463.97 323.52v47.38h-23.06v-5.239a49.325 49.325 0 0 1-27.021 8.029h-.26c-27.53-.17-49.91-22.64-49.91-50.17 0-27.529 22.38-49.989 49.91-50.16h.26c9.96 0 19.25 2.961 27.021 8.021v-5.49h23.06v47.629zm-23.06 5.24v-10.47c-2.45-12.67-13.68-22.3-27.021-22.3h-.26c-15.11.09-27.36 12.42-27.36 27.529 0 15.12 12.25 27.45 27.36 27.62h.26c13.341.001 24.571-9.709 27.021-22.379zM355.7 323.52v47.38h-23.05v-5.239c-7.86 5.069-17.061 8.029-27.03 8.029h-.25c-27.53-.17-49.91-22.64-49.91-50.17 0-27.529 22.38-49.989 49.91-50.16h.25c9.97 0 19.17 2.961 27.03 8.021V243.3h23.05v80.22zm-23.05 5.24v-10.47c-2.45-12.67-13.69-22.3-27.03-22.3h-.25c-15.12.09-27.36 12.42-27.36 27.529 0 15.12 12.24 27.45 27.36 27.62h.25c13.34.001 24.58-9.709 27.03-22.379zM305.37 243.3h-84.12l-61.81-102.86-2.7-4.48 2.7-1.6 79.13-47.64 66.8 111.139 27.19 45.441zM221.34 273.359h25.08v97.54h-25.08zM221.34 243.8h25.08v22.04h-25.08zM209.85 323.52v47.38H186.8v-5.239c-7.85 5.069-17.14 8.029-27.11 8.029h-.25c-27.53-.17-49.91-22.64-49.91-50.17 0-27.529 22.38-49.989 49.91-50.16h.25c9.97 0 19.26 2.961 27.11 8.021V243.3h23.05v80.22zm-23.05 5.24v-10.47c-2.45-12.67-13.68-22.3-27.11-22.3h-.25c-15.12.09-27.36 12.42-27.36 27.529 0 15.12 12.24 27.45 27.36 27.62h.25c13.43.001 24.66-9.709 27.11-22.379zM159.44 205.29l22.8 38.01H70.85l-12.5-20.861 81.83-49.149zM100.49 323.52v47.38H77.44v-5.239c-7.86 5.069-17.15 8.029-27.11 8.029h-.26C22.63 373.52.25 351.05.25 323.52c0-27.529 22.38-49.989 49.82-50.16h.26c9.96 0 19.25 2.961 27.11 8.021v-5.49h23.05v47.629zm-23.05 5.24v-10.47c-2.45-12.67-13.68-22.3-27.11-22.3h-.26c-15.03.09-27.27 12.42-27.27 27.529 0 15.12 12.24 27.45 27.27 27.62h.26c13.43.001 24.66-9.709 27.11-22.379z"/></g></svg>