<?xml version="1.0" encoding="UTF-8" standalone="no"?><svg xmlns="http://www.w3.org/2000/svg" viewBox="-4.62 -4.62 39.23 39.23" width="30" height="30"><defs><linearGradient id="aff"><stop offset="0" stop-color="#de5644"/><stop offset=".5" stop-color="#da4531"/><stop offset="1" stop-color="#ce3a28"/></linearGradient><linearGradient id="afe"><stop offset="0" stop-color="#0aa561"/><stop offset=".5" stop-color="#009b58"/><stop offset="1" stop-color="#00914b"/></linearGradient><linearGradient id="afd"><stop offset="0" stop-color="#1a6fef"/><stop offset=".25" stop-color="#1e72ef"/><stop offset=".5" stop-color="#166bec"/><stop offset=".75" stop-color="#1267e9"/><stop offset="1" stop-color="#1063e5" stop-opacity=".87"/></linearGradient><linearGradient id="afc"><stop offset="0" stop-color="#ffc01a"/><stop offset=".5" stop-color="#ffba03"/><stop offset="1" stop-color="#ffb300"/></linearGradient><linearGradient id="afb"><stop offset="0" stop-color="#de5744"/><stop offset=".5" stop-color="#db4632"/><stop offset="1" stop-color="#d13d29"/></linearGradient><linearGradient id="afa"><stop offset="0" stop-color="#196eef"/><stop offset=".5" stop-color="#186dee"/><stop offset="1" stop-color="#1065e7"/></linearGradient></defs><g transform="translate(2.07 -1750.758)"><path d="M18.257 1768.283l-.075-.031a12.204 12.204 0 0 0-1.644-.562 13.31 13.31 0 0 0-.77-.184c-.089-.017-.18-.033-.27-.048l-.062-.011a10.85 10.85 0 0 0-.468-.075l-.045-.006-.005-.001-.045-.006c-.13-.018-.26-.035-.396-.05l-.46-.035a13.42 13.42 0 0 0-1.711.005l-.164.012-.076.006-.19.016a10.4 10.4 0 0 0-.524.065l-.05.007a17.314 17.314 0 0 0-.742.13 13.025 13.025 0 0 0-1.288.338l-.122.041c-.375.123-.746.264-1.106.419l-.097.042-.001.003c-4.21 1.87-6.925 5.854-6.925 10.177 0 .1.007.197.014.295l.032.686h24.232l.033-.678c.007-.1.013-.2.013-.303 0-4.392-2.78-8.412-7.088-10.252zm-16.047 10.13c.05-3.881 2.524-7.442 6.293-9.082l.12-.044.015-.013c.295-.125.6-.24.909-.34l.098-.033a11.331 11.331 0 0 1 1.517-.372c.093-.016.186-.032.28-.046l.047-.008c.17-.025.34-.047.51-.064l.389-.032c.508-.035.995-.04 1.584 0l.378.03c.093.01.186.021.3.036l.136.018c.142.02.284.042.426.067l.067.011c.08.014.16.028.235.043a13.077 13.077 0 0 1 1.139.293 11.013 11.013 0 0 1 1.065.39l.03.013c3.854 1.64 6.357 5.213 6.408 9.132H2.21v.001zm8.037-12.555c.09.034.181.065.273.095l.193.065c.075.026.15.052.226.074a8.066 8.066 0 0 0 2.202.32h.06c.258 0 .517-.013.765-.036a3.81 3.81 0 0 0 .253-.034l.186-.026c.104-.012.209-.027.318-.047.075-.014.147-.032.22-.05l.203-.048c.1-.023.2-.045.3-.074.062-.018.122-.04.182-.06l.164-.055a6.25 6.25 0 0 0 .351-.122c.046-.018.09-.038.134-.057l.053-.025c.161-.066.322-.135.48-.214l.104-.057a7.54 7.54 0 0 0 .536-.305c.093-.059.182-.124.27-.19l.304-.219c1.75-1.343 2.754-3.315 2.754-5.36l.004-.058c0-3.88-3.402-7.036-7.582-7.036-3.99 0-7.31 2.896-7.558 6.593l-.007.091c-.01.117-.017.233-.017.352-.001 2.834 1.816 5.378 4.63 6.483zM6.82 1759.1l.007-.1c.209-3.117 3.008-5.559 6.372-5.559 3.526 0 6.394 2.662 6.397 5.884l-.004.058c-.002 1.765-.85 3.427-2.332 4.569l-.282.2a3.216 3.216 0 0 1-.206.145c-.142.09-.293.17-.447.251l-.084.048a6.24 6.24 0 0 1-.404.179l-.157.07c-.09.035-.186.066-.28.096l-.195.066c-.038.013-.077.027-.115.038-.073.02-.147.036-.222.054l-.237.056c-.05.013-.101.026-.146.035-.08.014-.16.024-.24.034l-.226.032a2.35 2.35 0 0 1-.17.023 6.71 6.71 0 0 1-.6.031h-.056a6.82 6.82 0 0 1-1.9-.268c-.053-.016-.104-.035-.156-.053l-.223-.076c-.07-.022-.139-.044-.205-.07-2.372-.93-3.904-3.078-3.904-5.468 0-.093.008-.184.015-.275z" fill="#404040"/><path d="M19.876 1760.927c-3.313-.663-4.527-3.722-4.527-3.722-2.19 4.323-10.697 2.146-9.043 2.108.78-8.656 14.302-8.648 13.57 1.614z" fill="none" stroke="#404040" stroke-width=".73"/></g></svg>