<?xml version="1.0" encoding="UTF-8" standalone="no"?><svg xmlns="http://www.w3.org/2000/svg" viewBox="-3.08 -3.08 26.15 26.15" width="30" height="30"><defs><linearGradient id="agf"><stop offset="0" stop-color="#de5644"/><stop offset=".5" stop-color="#da4531"/><stop offset="1" stop-color="#ce3a28"/></linearGradient><linearGradient id="age"><stop offset="0" stop-color="#0aa561"/><stop offset=".5" stop-color="#009b58"/><stop offset="1" stop-color="#00914b"/></linearGradient><linearGradient id="agd"><stop offset="0" stop-color="#1a6fef"/><stop offset=".25" stop-color="#1e72ef"/><stop offset=".5" stop-color="#166bec"/><stop offset=".75" stop-color="#1267e9"/><stop offset="1" stop-color="#1063e5" stop-opacity=".87"/></linearGradient><linearGradient id="agc"><stop offset="0" stop-color="#ffc01a"/><stop offset=".5" stop-color="#ffba03"/><stop offset="1" stop-color="#ffb300"/></linearGradient><linearGradient id="agb"><stop offset="0" stop-color="#de5744"/><stop offset=".5" stop-color="#db4632"/><stop offset="1" stop-color="#d13d29"/></linearGradient><linearGradient id="aga"><stop offset="0" stop-color="#196eef"/><stop offset=".5" stop-color="#186dee"/><stop offset="1" stop-color="#1065e7"/></linearGradient></defs><path d="M9.958 14.678c-2.732 0-4.954-2.174-4.954-4.847 0-2.674 2.221-4.848 4.954-4.848 2.731 0 4.953 2.174 4.953 4.848 0 2.673-2.222 4.847-4.953 4.847zm4.177-4.185a6.338 6.338 0 0 0-2.635-.176c.554 1.488.778 2.7.822 2.952a4.14 4.14 0 0 0 1.813-2.776zm-2.525 3.155a16.971 16.971 0 0 0-.901-3.14c-.01 0-.02 0-.028.013-2.387.814-3.245 2.433-3.32 2.584.718.548 1.62.875 2.597.875.587 0 1.146-.117 1.653-.33zm-4.797-1.044c.097-.16 1.258-2.04 3.439-2.732.054-.017.11-.034.166-.049a14.452 14.452 0 0 0-.342-.702c-2.11.62-4.162.593-4.348.59l-.001.127c0 1.063.412 2.034 1.087 2.767zm-.996-3.616c.19 0 1.933.012 3.913-.504A26.057 26.057 0 0 0 8.16 6.09c-1.184.547-2.07 1.615-2.342 2.899zm3.15-3.177c.116.153.886 1.178 1.579 2.423 1.505-.55 2.142-1.39 2.217-1.496a4.262 4.262 0 0 0-2.805-1.043c-.34 0-.674.041-.991.115zm4.267 1.409c-.09.117-.8 1.007-2.363 1.632.098.197.194.397.28.6.031.073.062.142.091.214 1.409-.172 2.808.105 2.947.133a4.077 4.077 0 0 0-.956-2.579z" fill="#969696"/></svg>