<?xml version="1.0" encoding="UTF-8" standalone="no"?><svg xmlns="http://www.w3.org/2000/svg" viewBox="-4.62 -4.62 39.23 39.23" width="30" height="30"><defs><linearGradient id="aif"><stop offset="0" stop-color="#de5644"/><stop offset=".5" stop-color="#da4531"/><stop offset="1" stop-color="#ce3a28"/></linearGradient><linearGradient id="aie"><stop offset="0" stop-color="#0aa561"/><stop offset=".5" stop-color="#009b58"/><stop offset="1" stop-color="#00914b"/></linearGradient><linearGradient id="aid"><stop offset="0" stop-color="#1a6fef"/><stop offset=".25" stop-color="#1e72ef"/><stop offset=".5" stop-color="#166bec"/><stop offset=".75" stop-color="#1267e9"/><stop offset="1" stop-color="#1063e5" stop-opacity=".87"/></linearGradient><linearGradient id="aic"><stop offset="0" stop-color="#ffc01a"/><stop offset=".5" stop-color="#ffba03"/><stop offset="1" stop-color="#ffb300"/></linearGradient><linearGradient id="aib"><stop offset="0" stop-color="#de5744"/><stop offset=".5" stop-color="#db4632"/><stop offset="1" stop-color="#d13d29"/></linearGradient><linearGradient id="aia"><stop offset="0" stop-color="#196eef"/><stop offset=".5" stop-color="#186dee"/><stop offset="1" stop-color="#1065e7"/></linearGradient></defs><path overflow="visible" d="M5.202 3.68c-1.382 0-2.513 1.248-2.513 2.771V22.52c0 1.523 1.13 2.77 2.513 2.77h8.042c.836 0 1.508.748 1.508 1.662a.503.554 0 0 0 .628.537.503.554 0 0 0 .314-.26.503.554 0 0 0 .063-.277c0-.914.671-1.662 1.508-1.662h8.042c1.382 0 2.513-1.247 2.513-2.77V6.45c0-1.523-1.131-2.77-2.513-2.77h-8.042c-.82 0-1.551.45-2.01 1.125-.46-.676-1.19-1.125-2.011-1.125H5.202zm0 1.109h8.042c.838 0 1.508.738 1.508 1.662v18.353c-.426-.364-.93-.623-1.508-.623H5.202c-.839 0-1.508-.738-1.508-1.662V6.45c0-.924.669-1.662 1.508-1.662zm12.063 0h8.042c.838 0 1.508.738 1.508 1.662V22.52c0 .924-.67 1.662-1.508 1.662h-8.042c-.578 0-1.083.259-1.508.623V6.451c0-.924.67-1.662 1.508-1.662z" style="line-height:normal;-inkscape-font-specification:'Bitstream Vera Sans';text-indent:0;text-align:start;text-transform:none;block-progression:tb" color="#000" font-family="Bitstream Vera Sans" fill="#404040"/></svg>