<?xml version="1.0" encoding="UTF-8" standalone="no"?><svg xmlns="http://www.w3.org/2000/svg" viewBox="-4.62 -4.62 39.23 39.23" width="30" height="30"><defs><linearGradient id="ajf"><stop offset="0" stop-color="#de5644"/><stop offset=".5" stop-color="#da4531"/><stop offset="1" stop-color="#ce3a28"/></linearGradient><linearGradient id="aje"><stop offset="0" stop-color="#0aa561"/><stop offset=".5" stop-color="#009b58"/><stop offset="1" stop-color="#00914b"/></linearGradient><linearGradient id="ajd"><stop offset="0" stop-color="#1a6fef"/><stop offset=".25" stop-color="#1e72ef"/><stop offset=".5" stop-color="#166bec"/><stop offset=".75" stop-color="#1267e9"/><stop offset="1" stop-color="#1063e5" stop-opacity=".87"/></linearGradient><linearGradient id="ajc"><stop offset="0" stop-color="#ffc01a"/><stop offset=".5" stop-color="#ffba03"/><stop offset="1" stop-color="#ffb300"/></linearGradient><linearGradient id="ajb"><stop offset="0" stop-color="#de5744"/><stop offset=".5" stop-color="#db4632"/><stop offset="1" stop-color="#d13d29"/></linearGradient><linearGradient id="aja"><stop offset="0" stop-color="#196eef"/><stop offset=".5" stop-color="#186dee"/><stop offset="1" stop-color="#1065e7"/></linearGradient></defs><g transform="matrix(.06032 0 0 .06041 1.229 .912)"><g fill="#7e7e7e"><path d="M240 356.071V132.12c0-4.143-3.357-7.5-7.5-7.5a7.499 7.499 0 0 0-7.5 7.5v223.951c0 4.143 3.357 7.5 7.5 7.5s7.5-3.357 7.5-7.5z"/><path d="M457.5 75.782c-15.856 0-35.614-6.842-56.533-14.085-26.492-9.174-56.521-19.571-87.663-19.571-36.035 0-58.019 15.791-70.115 29.038a91.152 91.152 0 0 0-10.688 14.327 91.152 91.152 0 0 0-10.688-14.327c-12.097-13.247-34.08-29.038-70.115-29.038-31.143 0-61.171 10.397-87.663 19.571C43.114 68.94 23.356 75.782 7.5 75.782a7.499 7.499 0 0 0-7.5 7.5v302.092c0 4.143 3.357 7.5 7.5 7.5 18.38 0 39.297-7.243 61.441-14.911 25.375-8.786 54.136-18.745 82.755-18.745 24.54 0 44.403 8.126 59.038 24.152a7.501 7.501 0 0 0 11.076-10.116c-12.097-13.246-34.08-29.037-70.114-29.037-31.143 0-61.171 10.397-87.663 19.571-17.735 6.143-34.637 11.994-49.033 13.634V90.41c16.491-1.571 34.755-7.896 53.941-14.539 25.375-8.786 54.136-18.745 82.755-18.745 57.881 0 73.025 45.962 73.634 47.894a7.502 7.502 0 0 0 14.34 0c.146-.479 15.383-47.894 73.634-47.894 28.619 0 57.38 9.959 82.755 18.745 19.187 6.644 37.45 12.968 53.941 14.539v287.012c-14.396-1.64-31.298-7.491-49.033-13.633-26.492-9.174-56.521-19.571-87.663-19.571-36.036 0-58.02 15.791-70.115 29.038a7.501 7.501 0 0 0 11.076 10.116c14.635-16.027 34.498-24.153 59.039-24.153 28.619 0 57.38 9.959 82.755 18.745 22.145 7.668 43.062 14.911 61.441 14.911 4.143 0 7.5-3.357 7.5-7.5V83.282a7.5 7.5 0 0 0-7.5-7.5z"/><path d="M457.5 407.874c-15.856 0-35.614-6.842-56.533-14.085-26.492-9.174-56.521-19.571-87.663-19.571-33.843 0-55.291 13.928-67.796 26.596l-26.017-.001c-12.505-12.668-33.954-26.595-67.795-26.595-31.143 0-61.171 10.397-87.663 19.571-20.919 7.243-40.677 14.085-56.533 14.085a7.499 7.499 0 0 0-7.5 7.5c0 4.143 3.357 7.5 7.5 7.5 18.38 0 39.297-7.243 61.441-14.911 25.375-8.786 54.136-18.745 82.755-18.745 24.54 0 44.403 8.126 59.038 24.152a7.5 7.5 0 0 0 5.538 2.442l32.454.001a7.503 7.503 0 0 0 5.538-2.442c14.635-16.027 34.498-24.153 59.039-24.153 28.619 0 57.38 9.959 82.755 18.745 22.145 7.668 43.062 14.911 61.441 14.911 4.143 0 7.5-3.357 7.5-7.5s-3.356-7.5-7.499-7.5z"/></g><path d="M131.74 153.471c-6.263.042-12.733.593-19.317 1.766a110.99 110.99 0 0 0-12.378 2.941c-28.234 8.479-46.805 25.823-56.497 38.799-7.115 9.519-14.117 19.673-13.283 20.392.833.719 9.377-8.105 17.748-16.55 10.855-10.962 28.895-25.697 54.826-33.12a112.598 112.598 0 0 1 11.336-2.622c13.762-2.45 27.07-2.24 38.952-.51 26.278 2.813 50.017 17.533 56.744 21.719-.06-.195-17.606-10.982-20.994-13.988-.54-.06 18.905 12.611 18.905 12.611-6.673-5.415-29.153-23.584-53.124-29.313a116.388 116.388 0 0 0-22.918-2.125zM133.874 217.453c-6.263.041-12.733.593-19.317 1.766a110.99 110.99 0 0 0-12.379 2.941c-28.233 8.479-46.804 25.823-56.496 38.799-7.115 9.519-14.118 19.673-13.284 20.392.834.719 9.378-8.105 17.749-16.55C61 253.839 79.04 239.104 104.973 231.68a112.598 112.598 0 0 1 11.336-2.622c13.762-2.45 27.07-2.24 38.951-.51 26.279 2.813 50.018 17.533 56.744 21.719-.059-.195-17.605-10.982-20.993-13.988-.54-.06 18.904 12.611 18.904 12.611-6.672-5.415-29.153-23.584-53.124-29.313a116.388 116.388 0 0 0-22.918-2.125zM132.142 282.498c-6.263.042-12.733.593-19.316 1.766a110.99 110.99 0 0 0-12.38 2.941c-28.232 8.479-46.804 25.823-56.495 38.8-7.115 9.518-14.118 19.672-13.284 20.391.834.719 9.378-8.105 17.749-16.55 10.854-10.962 28.894-25.697 54.826-33.12a112.598 112.598 0 0 1 11.336-2.622c13.761-2.45 27.07-2.24 38.95-.51 26.28 2.813 50.019 17.533 56.745 21.72-.059-.196-17.606-10.983-20.994-13.988-.539-.06 18.905 12.61 18.905 12.61-6.672-5.414-29.153-23.583-53.124-29.313a116.387 116.387 0 0 0-22.918-2.125zM337.061 154.816c6.263.041 12.733.593 19.317 1.766a110.99 110.99 0 0 1 12.379 2.941c28.233 8.478 46.804 25.823 56.496 38.799 7.115 9.519 14.118 19.673 13.284 20.392-.834.719-9.378-8.106-17.749-16.55-10.854-10.962-28.894-25.697-54.826-33.12a112.598 112.598 0 0 0-11.336-2.623c-13.762-2.449-27.07-2.239-38.951-.51-26.279 2.814-50.018 17.533-56.744 21.72.059-.195 17.605-10.982 20.993-13.988.54-.06-18.904 12.611-18.904 12.611 6.672-5.415 29.153-23.584 53.124-29.313a116.388 116.388 0 0 1 22.917-2.125zM332.424 218.299c6.263.041 12.733.593 19.317 1.765a110.99 110.99 0 0 1 12.378 2.942c28.234 8.478 46.805 25.823 56.497 38.799 7.115 9.519 14.117 19.673 13.283 20.392-.833.719-9.377-8.106-17.748-16.55-10.855-10.962-28.895-25.697-54.826-33.12a112.598 112.598 0 0 0-11.336-2.623c-13.762-2.449-27.07-2.24-38.952-.51-26.278 2.814-50.017 17.533-56.744 21.72.06-.195 17.606-10.983 20.994-13.988.54-.06-18.904 12.61-18.904 12.61 6.672-5.414 29.152-23.583 53.123-29.312a116.388 116.388 0 0 1 22.918-2.125zM331.728 279.91c6.262.042 12.732.593 19.316 1.766a110.99 110.99 0 0 1 12.379 2.942c28.233 8.478 46.804 25.822 56.496 38.798 7.115 9.52 14.118 19.674 13.284 20.392-.834.72-9.378-8.105-17.749-16.55-10.854-10.961-28.894-25.697-54.826-33.119a112.598 112.598 0 0 0-11.336-2.623c-13.761-2.45-27.07-2.24-38.951-.51-26.279 2.813-50.018 17.533-56.744 21.72.059-.196 17.605-10.983 20.993-13.988.54-.06-18.904 12.61-18.904 12.61 6.672-5.414 29.153-23.583 53.124-29.312a116.388 116.388 0 0 1 22.918-2.125zM412.184 74.481l.629 76.923 12.238-1.113-.283-74.358z" fill="#7e7e7e" fill-rule="evenodd"/></g></svg>