<?xml version="1.0" encoding="UTF-8" standalone="no"?><svg xmlns="http://www.w3.org/2000/svg" viewBox="-4.62 -4.62 39.23 39.23" width="30" height="30"><defs><linearGradient id="aqf"><stop offset="0" stop-color="#de5644"/><stop offset=".5" stop-color="#da4531"/><stop offset="1" stop-color="#ce3a28"/></linearGradient><linearGradient id="aqe"><stop offset="0" stop-color="#0aa561"/><stop offset=".5" stop-color="#009b58"/><stop offset="1" stop-color="#00914b"/></linearGradient><linearGradient id="aqd"><stop offset="0" stop-color="#1a6fef"/><stop offset=".25" stop-color="#1e72ef"/><stop offset=".5" stop-color="#166bec"/><stop offset=".75" stop-color="#1267e9"/><stop offset="1" stop-color="#1063e5" stop-opacity=".87"/></linearGradient><linearGradient id="aqc"><stop offset="0" stop-color="#ffc01a"/><stop offset=".5" stop-color="#ffba03"/><stop offset="1" stop-color="#ffb300"/></linearGradient><linearGradient id="aqb"><stop offset="0" stop-color="#de5744"/><stop offset=".5" stop-color="#db4632"/><stop offset="1" stop-color="#d13d29"/></linearGradient><linearGradient id="aqa"><stop offset="0" stop-color="#196eef"/><stop offset=".5" stop-color="#186dee"/><stop offset="1" stop-color="#1065e7"/></linearGradient></defs><path d="M20.27 2.842l-3.73 3.134.946.956-1.787 1.806-1.839-1.86.578-.583-3.362-3.4L.83 12.934l3.415 3.717.683-.69 11.297 11.313 8.722-8.817-1.314-1.328 1.84-2.124.787.797 3.416-3.453-9.405-9.507zM4.246 15.855l-2.68-2.921 9.51-9.295 2.628 2.656-9.458 9.56zm19.914 2.602l-1.471 1.487-3.573-3.717a.252.252 0 0 0-.368 0 .259.259 0 0 0 0 .371l3.573 3.718-1.84 1.86-3.572-3.719a.252.252 0 0 0-.368 0 .259.259 0 0 0 0 .372l3.573 3.718-1.839 1.859-3.573-3.718a.252.252 0 0 0-.368 0 .259.259 0 0 0 0 .372l3.573 3.718-1.681 1.752L5.349 15.536l8.144-8.232 1.839 1.859-4.046 4.196 2.68 2.708 3.888-3.93 6.305 6.32zm-.946-1.7l-5.36-5.47-3.887 3.93-1.945-1.912 4.099-4.142 1.786-1.806 7.198 7.276-1.891 2.125zM17.328 5.977l2.89-2.443 8.722 8.816-2.68 2.709-8.932-9.082z" fill="#404040" stroke="#404040" stroke-width=".37"/></svg>