<?xml version="1.0" encoding="UTF-8" standalone="no"?><svg xmlns="http://www.w3.org/2000/svg" viewBox="-3.08 -3.08 26.15 26.15" width="30" height="30"><defs><linearGradient id="asf"><stop offset="0" stop-color="#de5644"/><stop offset=".5" stop-color="#da4531"/><stop offset="1" stop-color="#ce3a28"/></linearGradient><linearGradient id="ase"><stop offset="0" stop-color="#0aa561"/><stop offset=".5" stop-color="#009b58"/><stop offset="1" stop-color="#00914b"/></linearGradient><linearGradient id="asd"><stop offset="0" stop-color="#1a6fef"/><stop offset=".25" stop-color="#1e72ef"/><stop offset=".5" stop-color="#166bec"/><stop offset=".75" stop-color="#1267e9"/><stop offset="1" stop-color="#1063e5" stop-opacity=".87"/></linearGradient><linearGradient id="asc"><stop offset="0" stop-color="#ffc01a"/><stop offset=".5" stop-color="#ffba03"/><stop offset="1" stop-color="#ffb300"/></linearGradient><linearGradient id="asb"><stop offset="0" stop-color="#de5744"/><stop offset=".5" stop-color="#db4632"/><stop offset="1" stop-color="#d13d29"/></linearGradient><linearGradient id="asa"><stop offset="0" stop-color="#196eef"/><stop offset=".5" stop-color="#186dee"/><stop offset="1" stop-color="#1065e7"/></linearGradient></defs><g transform="matrix(.04347 0 0 .0404 3.432 3.568)" fill="#c9c9c9"><path d="M72.16 99.73H9.927a5 5 0 0 0-5 5v199.928a5 5 0 0 0 5 5H72.16a5 5 0 0 0 5-5V104.73a5 5 0 0 0-5-5zM41.066.341C18.422.341 0 18.743 0 41.362 0 63.991 18.422 82.4 41.066 82.4c22.626 0 41.033-18.41 41.033-41.038C82.1 18.743 63.692.341 41.066.341zM230.454 94.761c-24.995 0-43.472 10.745-54.679 22.954V104.73a5 5 0 0 0-5-5h-59.599a5 5 0 0 0-5 5v199.928a5 5 0 0 0 5 5h62.097a5 5 0 0 0 5-5V205.74c0-33.333 9.054-46.319 32.29-46.319 25.306 0 27.317 20.818 27.317 48.034v97.204a5 5 0 0 0 5 5H305a5 5 0 0 0 5-5V194.995c0-49.565-9.451-100.234-79.546-100.234z"/></g></svg>