<?xml version="1.0" encoding="UTF-8" standalone="no"?><svg xmlns="http://www.w3.org/2000/svg" viewBox="-7.69 -7.69 65.38 65.38" width="30" height="30"><defs><linearGradient id="auf"><stop offset="0" stop-color="#de5644"/><stop offset=".5" stop-color="#da4531"/><stop offset="1" stop-color="#ce3a28"/></linearGradient><linearGradient id="aue"><stop offset="0" stop-color="#0aa561"/><stop offset=".5" stop-color="#009b58"/><stop offset="1" stop-color="#00914b"/></linearGradient><linearGradient id="aud"><stop offset="0" stop-color="#1a6fef"/><stop offset=".25" stop-color="#1e72ef"/><stop offset=".5" stop-color="#166bec"/><stop offset=".75" stop-color="#1267e9"/><stop offset="1" stop-color="#1063e5" stop-opacity=".87"/></linearGradient><linearGradient id="auc"><stop offset="0" stop-color="#ffc01a"/><stop offset=".5" stop-color="#ffba03"/><stop offset="1" stop-color="#ffb300"/></linearGradient><linearGradient id="aub"><stop offset="0" stop-color="#de5744"/><stop offset=".5" stop-color="#db4632"/><stop offset="1" stop-color="#d13d29"/></linearGradient><linearGradient id="aua"><stop offset="0" stop-color="#196eef"/><stop offset=".5" stop-color="#186dee"/><stop offset="1" stop-color="#1065e7"/></linearGradient></defs><g transform="matrix(.04231 0 0 .04858 .712 16.932)" fill="#7e7e7e"><path d="M419.083 237.772h-41.69v66.193h12.522v-27.936h29.168c20.135 0 27.492-10.42 27.492-19.636 0-10.693-10.322-18.621-27.492-18.621zm-4.259 30.602h-24.91v-22.96h25.427c10.328 0 18.33 2.68 18.33 11.07 0 8.938-7.619 11.89-18.847 11.89zM635.828 303.485h-14.132l-18.901-26.854c-.237-.346-.699-.523-1.173-.608h.62a1.52 1.52 0 0 0-.62 0h-25.377v27.936h-12.522v-66.193h41.69c17.164 0 27.492 7.928 27.492 18.615 0 7.619-5.055 16.046-18.178 18.737l21.1 28.367zm-59.583-35.11h24.916c11.227 0 18.846-2.953 18.846-11.89 0-8.39-8.002-11.07-18.33-11.07h-25.432v22.96zM488.484 237.772l-38.586 66.193h14.296l10.717-19.272h41.156l10.146 19.272h15.152l-37.158-66.193h-15.723zm-9.29 38.993l16.435-29.133h.285l15.147 29.133h-31.866zM755.965 268.301l-25.517-4.344c-5.225-.91-10.578-2.764-10.578-8.39 0-10.037 12.813-11.604 20.408-11.604 10.085 0 21.538 3.226 22.151 13.457h11.331c-.498-7.284-3.615-21.112-34.85-21.112-21.652 0-30.747 10.134-30.747 20.456 0 11.531 13.196 14.57 19.046 15.578l18.3 3.147c14.678 2.576 19.04 4.793 19.04 11.701 0 9.496-14.684 11.155-23.402 11.155-11.453 0-24.643-3.5-24.643-15.487h-11.33c0 6.185 1.494 11.714 9.089 16.78 3.979 2.668 10.455 6.362 27.005 6.362 15.31 0 34.977-4.332 34.977-20.007.006-10.498-8.712-15.662-20.28-17.692zM665.166 237.401h11.878v11.878h-11.878zM665.239 256.284h11.884v47.31h-11.884zM742.143 117.744V99.42h-92.178V46.09h122.732V28.038H624.545v165.71h148.152v-18.087H649.965v-57.918zM744.44 1.282h-42.9L681.473 23.81zM1148 175.662h-126.596V28.039h-23.166v165.71H1148zM868.696 28.039l-84.237 165.71h28.47l21.562-42.887h101.03l21.744 42.887h28.178l-84.31-165.71h-32.437zm-23.549 102.08l39.692-79.163 40.183 79.164h-79.875zM544.166 124.476c37.948-10.134 41.648-38.404 41.466-48.483-2.273-29.606-22.206-47.954-58.064-47.954H423.154v165.71h23.81V124.25h67.967l50.007 69.498h30.001c.012 0-35.96-46.776-50.773-69.273zm-19.842-19.825H446.97V47.663h80.063c18.421 0 28.792 8.603 32.529 19.527 2.466 7.503.88 17.339-3.19 24.028-6.695 11.088-19.405 13.433-32.048 13.433zM280.088 0C212.898 0 167.1 47.371 167.1 104.736c0 60.379 50.597 102.98 112.987 102.98 62.383 0 112.95-41.994 112.95-102.98C393.038 47.371 346.669 0 280.088 0zm-.796 187.163c-46.496 0-84.802-37.365-84.802-82.378 0-44.965 36.507-84.116 86.594-84.116 48.871 0 84.778 39.145 84.778 84.116.006 45.013-40.093 82.378-86.57 82.378zM124.323 86.655L155.51 28.04h-25.098l-23.263 58.616zM149.762 175.662H23.166V28.039H0v165.71h149.762z"/></g></svg>