<?xml version="1.0" encoding="UTF-8" standalone="no"?><svg xmlns="http://www.w3.org/2000/svg" viewBox="-4.62 -4.62 39.23 39.23" width="30" height="30"><defs><linearGradient id="avf"><stop offset="0" stop-color="#de5644"/><stop offset=".5" stop-color="#da4531"/><stop offset="1" stop-color="#ce3a28"/></linearGradient><linearGradient id="ave"><stop offset="0" stop-color="#0aa561"/><stop offset=".5" stop-color="#009b58"/><stop offset="1" stop-color="#00914b"/></linearGradient><linearGradient id="avd"><stop offset="0" stop-color="#1a6fef"/><stop offset=".25" stop-color="#1e72ef"/><stop offset=".5" stop-color="#166bec"/><stop offset=".75" stop-color="#1267e9"/><stop offset="1" stop-color="#1063e5" stop-opacity=".87"/></linearGradient><linearGradient id="avc"><stop offset="0" stop-color="#ffc01a"/><stop offset=".5" stop-color="#ffba03"/><stop offset="1" stop-color="#ffb300"/></linearGradient><linearGradient id="avb"><stop offset="0" stop-color="#de5744"/><stop offset=".5" stop-color="#db4632"/><stop offset="1" stop-color="#d13d29"/></linearGradient><linearGradient id="ava"><stop offset="0" stop-color="#196eef"/><stop offset=".5" stop-color="#186dee"/><stop offset="1" stop-color="#1065e7"/></linearGradient></defs><path d="M27.812 5.672H2.697c-.463 0-.838.362-.838.81v17.8c0 .446.375.808.838.808h25.115c.462 0 .837-.362.837-.809v-17.8c0-.447-.375-.809-.837-.809zm0 18.035l-8.615-8.326 8.615-8.325v16.65zM27.217 6.48L15.254 18.043 3.291 6.481h23.926zm-24.52.575l8.614 8.325-8.614 8.326V7.056zm9.209 8.9l3.048 2.946c.083.08.192.12.3.119a.426.426 0 0 0 .3-.119l3.049-2.946 8.614 8.325H3.291l8.615-8.325z" fill="#404040"/></svg>