<?xml version="1.0" encoding="UTF-8" standalone="no"?><svg xmlns="http://www.w3.org/2000/svg" viewBox="-7.69 -7.69 65.38 65.38" width="30" height="30"><defs><linearGradient id="ayf"><stop offset="0" stop-color="#de5644"/><stop offset=".5" stop-color="#da4531"/><stop offset="1" stop-color="#ce3a28"/></linearGradient><linearGradient id="aye"><stop offset="0" stop-color="#0aa561"/><stop offset=".5" stop-color="#009b58"/><stop offset="1" stop-color="#00914b"/></linearGradient><linearGradient id="ayd"><stop offset="0" stop-color="#1a6fef"/><stop offset=".25" stop-color="#1e72ef"/><stop offset=".5" stop-color="#166bec"/><stop offset=".75" stop-color="#1267e9"/><stop offset="1" stop-color="#1063e5" stop-opacity=".87"/></linearGradient><linearGradient id="ayc"><stop offset="0" stop-color="#ffc01a"/><stop offset=".5" stop-color="#ffba03"/><stop offset="1" stop-color="#ffb300"/></linearGradient><linearGradient id="ayb"><stop offset="0" stop-color="#de5744"/><stop offset=".5" stop-color="#db4632"/><stop offset="1" stop-color="#d13d29"/></linearGradient><linearGradient id="aya"><stop offset="0" stop-color="#196eef"/><stop offset=".5" stop-color="#186dee"/><stop offset="1" stop-color="#1065e7"/></linearGradient></defs><g transform="matrix(.02689 0 0 -.03226 -1.141 55.457)" fill-rule="evenodd" fill="#fff"><path d="M101.477 829.785l61.218 275.605h109.293l4.992-153.956 73.567 153.956h109.558l-61.476-275.605h-79.348l32.84 148.184-73.824-148.184h-57.012l-2.894 148.184-36.782-148.184h-80.132M469.566 1060.46h73.829l9.98 44.93h-74.09l-9.719-44.93M492.16 829.523l-74.351.262 45.453 204.145h74.351L492.16 829.523M773.809 1033.93h66.472l-5.781-25.22c9.195 11.29 20.23 18.39 34.156 23.12 11.297 3.67 22.071 5.51 34.68 5.51l-17.078-66.465c-4.203 0-55.699 9.984-71.727-68.574l-16.551-72.778h-70.152l45.981 204.407"/><path d="M734.926 905.191c0-1.578-23.383-83.55-126.114-81.449-137.671 2.891-101.941 223.588 54.387 215.708 88.805-4.47 84.336-78.298 83.547-81.45h-76.715c1.047 2.887 3.676 33.367-20.758 32.844-45.453-1.317-77.769-114.028-27.585-115.078 23.121-.789 33.89 26.007 35.992 29.425h77.246M1394.12 822.953c-149.5 6.309-104.57 226.477 48.87 219.117 144.24-7.09 103.25-225.16-48.87-219.117zM1438 993.992c-49.66 9.988-86.71-109.297-39.41-119.015 52.54-11.036 87.75 109.296 39.41 119.015"/><path d="M1674.19 1064.14c-20.49 0-24.43-7.88-27.85-23.38l-1.31-6.83h43.35l10.77 49.39h67.79l-10.51-49.39h34.94l-10.25-47.032h-34.94L1727 897.309c-.79-4.993-2.63-9.457-.79-14.977 2.89-8.144 32.06-4.727 32.06-4.727l-11.31-46.769s-59.37-6.828-79.34 7.094c-8.93 6.043-18.65 18.656-12.61 45.718l22.86 102.989-40.72.261-34.42-157.113h-73.04l34.15 157.113h-37.57l10.52 47.032h36.51c6.57 26.27 12.35 44.14 28.64 57.8 22.33 18.13 80.4 11.04 80.4 11.04l-8.15-38.63M1018.41 899.676l138.72.258s-11.82-30.739 31.8-31c30.21 0 42.03 34.418 1.31 41.511-18.65 3.418-90.91 15.5-82.76 71.2 6.83 45.715 54.38 61.745 106.41 60.955 106.4-1.31 86.43-63.846 87.75-68.049h-70.94s7.62 26.269-24.43 26.269c-29.17 0-36.26-26.269-2.63-33.363 40.98-8.934 88.02-11.035 90.64-63.844.79-14.715-7.88-83.547-115.08-81.445-98.26 2.098-105.09 48.34-102.46 69.887-17.86-37.575-62.53-70.942-122.174-68.836-149.492 4.726-104.039 226.211 49.134 218.591 69.62-3.42 96.16-56.224 87.75-108.244-1.31-9.195-2.1-10.507-4.73-11.296zm-20.23 94.582c-49.129 9.722-85.91-109.035-38.883-119.02 52.023-10.769 86.963 109.297 38.883 119.02M1832.36 1034.19c35.46 0 35.46-52.807 0-52.807-35.47 0-35.47 52.807 0 52.807zm0-4.73c-29.69 0-29.69-43.085 0-43.085 29.95 0 29.95 43.085 0 43.085zm4.73-24.69l5.25-10.512h-6.3l-4.21 10.512h-3.68l-1.58-11.301h-5.51l4.47 28.111h12.87s7.09-1.84 6.56-8.67c-.78-8.14-7.35-8.14-7.87-8.14zm-1.32 13.13h-5.25l-1.32-9.19h5.26s5.25-.79 5.78 4.46c0 4.73-4.47 4.73-4.47 4.73"/></g></svg>