<?xml version="1.0" encoding="UTF-8" standalone="no"?><svg xmlns="http://www.w3.org/2000/svg" viewBox="-4.62 -4.62 39.23 39.23" width="30" height="30"><defs><linearGradient id="azf"><stop offset="0" stop-color="#de5644"/><stop offset=".5" stop-color="#da4531"/><stop offset="1" stop-color="#ce3a28"/></linearGradient><linearGradient id="aze"><stop offset="0" stop-color="#0aa561"/><stop offset=".5" stop-color="#009b58"/><stop offset="1" stop-color="#00914b"/></linearGradient><linearGradient id="azd"><stop offset="0" stop-color="#1a6fef"/><stop offset=".25" stop-color="#1e72ef"/><stop offset=".5" stop-color="#166bec"/><stop offset=".75" stop-color="#1267e9"/><stop offset="1" stop-color="#1063e5" stop-opacity=".87"/></linearGradient><linearGradient id="azc"><stop offset="0" stop-color="#ffc01a"/><stop offset=".5" stop-color="#ffba03"/><stop offset="1" stop-color="#ffb300"/></linearGradient><linearGradient id="azb"><stop offset="0" stop-color="#de5744"/><stop offset=".5" stop-color="#db4632"/><stop offset="1" stop-color="#d13d29"/></linearGradient><linearGradient id="aza"><stop offset="0" stop-color="#196eef"/><stop offset=".5" stop-color="#186dee"/><stop offset="1" stop-color="#1065e7"/></linearGradient></defs><g transform="matrix(.70065 0 0 .71201 1.46 -1377.16)"><g transform="matrix(.1196 0 0 .1172 -.431 1935.976)"><path d="M306.605 25.849H24.775C11.112 25.849 0 36.967 0 50.631v186.224c0 13.67 11.112 24.775 24.775 24.775h111.39c-.122 8.297-.307 17.432-.318 26.74l-23.377.703c-4.548.137-8.233 3.689-8.233 8.233 0 4.557 2.98 4.723 7.53 4.723H219.62c4.55 0 7.531-.166 7.531-4.723 0-4.544-3.69-7.968-8.233-8.233l-24.086-1.404c.698-7.197.5-17.742.384-26.039h111.396c13.663 0 24.775-11.112 24.775-24.775V50.631c-.007-13.664-11.119-24.782-24.782-24.782zm11.922 211.006c0 6.575-5.347 11.922-11.922 11.922H24.775c-6.575 0-11.922-5.347-11.922-11.922V220.71h305.68v16.144h-.006zM12.854 207.863V50.631c0-6.575 5.347-11.928 11.922-11.928h281.83c6.575 0 11.922 5.354 11.922 11.928v157.226H12.854z" fill="#7e7e7e"/><path d="M19.189 77.59c-1.727-2.153 6.094-11.296 17.457-20.409C48.01 48.07 58.633 42.421 60.36 44.574c1.727 2.153-6.094 11.296-17.458 20.409C31.54 74.095 20.915 79.743 19.19 77.59zM18.277 111.602c-1.778-2.111 13.754-18.122 34.67-35.739 20.915-17.617 39.333-30.201 41.11-28.09 1.779 2.11-13.753 18.122-34.669 35.739-20.915 17.616-39.333 30.201-41.111 28.09z" fill="#7e7e7e" fill-rule="evenodd"/><path fill="#7e7e7e" d="M147.439 263.986h35.105v23.871h-35.105z"/></g><path fill="#282828" d="M17.373 1966.737h3.814v2.966h-3.814z"/></g></svg>