<?xml version="1.0" encoding="UTF-8" standalone="no"?><svg xmlns="http://www.w3.org/2000/svg" viewBox="-7.69 -7.69 65.38 65.38" width="30" height="30"><defs><linearGradient id="baf"><stop offset="0" stop-color="#de5644"/><stop offset=".5" stop-color="#da4531"/><stop offset="1" stop-color="#ce3a28"/></linearGradient><linearGradient id="bae"><stop offset="0" stop-color="#0aa561"/><stop offset=".5" stop-color="#009b58"/><stop offset="1" stop-color="#00914b"/></linearGradient><linearGradient id="bad"><stop offset="0" stop-color="#1a6fef"/><stop offset=".25" stop-color="#1e72ef"/><stop offset=".5" stop-color="#166bec"/><stop offset=".75" stop-color="#1267e9"/><stop offset="1" stop-color="#1063e5" stop-opacity=".87"/></linearGradient><linearGradient id="bac"><stop offset="0" stop-color="#ffc01a"/><stop offset=".5" stop-color="#ffba03"/><stop offset="1" stop-color="#ffb300"/></linearGradient><linearGradient id="bab"><stop offset="0" stop-color="#de5744"/><stop offset=".5" stop-color="#db4632"/><stop offset="1" stop-color="#d13d29"/></linearGradient><linearGradient id="baa"><stop offset="0" stop-color="#196eef"/><stop offset=".5" stop-color="#186dee"/><stop offset="1" stop-color="#1065e7"/></linearGradient></defs><path d="M5.846 32.816c-1.48-.063-2.692-.499-3.64-1.308a7.567 7.567 0 0 1-.755-.813 5.2 5.2 0 0 1-.82-1.585c-.536-1.726-.26-3.99.79-6.475.897-2.128 2.284-4.238 4.702-7.16a152.71 152.71 0 0 1 1.424-1.688c.002 0-.055.107-.128.238-.629 1.132-1.167 2.466-1.46 3.62-.47 1.853-.414 3.442.166 4.675.4.85 1.087 1.585 1.859 1.991 1.35.712 3.329.77 5.745.173.166-.042 8.408-2.393 18.315-5.226 9.907-2.834 18.014-5.15 18.015-5.148.003.003-23.016 10.59-34.966 16.083-1.893.87-2.399 1.09-3.289 1.425-2.274.858-4.311 1.268-5.958 1.198z" fill="#7e7e7e" overflow="visible"/></svg>