<?xml version="1.0" encoding="UTF-8" standalone="no"?><svg xmlns="http://www.w3.org/2000/svg" viewBox="-4.62 -4.62 39.23 39.23" width="30" height="30"><defs><linearGradient id="bcf"><stop offset="0" stop-color="#de5644"/><stop offset=".5" stop-color="#da4531"/><stop offset="1" stop-color="#ce3a28"/></linearGradient><linearGradient id="bce"><stop offset="0" stop-color="#0aa561"/><stop offset=".5" stop-color="#009b58"/><stop offset="1" stop-color="#00914b"/></linearGradient><linearGradient id="bcd"><stop offset="0" stop-color="#1a6fef"/><stop offset=".25" stop-color="#1e72ef"/><stop offset=".5" stop-color="#166bec"/><stop offset=".75" stop-color="#1267e9"/><stop offset="1" stop-color="#1063e5" stop-opacity=".87"/></linearGradient><linearGradient id="bcc"><stop offset="0" stop-color="#ffc01a"/><stop offset=".5" stop-color="#ffba03"/><stop offset="1" stop-color="#ffb300"/></linearGradient><linearGradient id="bcb"><stop offset="0" stop-color="#de5744"/><stop offset=".5" stop-color="#db4632"/><stop offset="1" stop-color="#d13d29"/></linearGradient><linearGradient id="bca"><stop offset="0" stop-color="#196eef"/><stop offset=".5" stop-color="#186dee"/><stop offset="1" stop-color="#1065e7"/></linearGradient></defs><path d="M6.379 1.915c-1.074 0-1.958.869-1.958 1.924v3.206h-.714c-.87.04-.809 1.323.062 1.283h2.61c.883.013.883-1.295 0-1.283h-.653V3.84c0-.356.291-.641.653-.641h18.273c.362 0 .652.285.652.641v23.085c0 .355-.29.641-.652.641H6.379a.645.645 0 0 1-.653-.641v-2.565H4.421v2.565c0 1.055.884 1.923 1.958 1.923h18.273c1.073 0 1.957-.868 1.957-1.923V3.839c0-1.055-.884-1.924-1.957-1.924zM4.421 8.97v1.924h-.774c-.87.08-.749 1.362.122 1.282h2.61c.882.013.882-1.295 0-1.282h-.653V8.969zm0 3.847v1.924h-.714c-.87.04-.809 1.323.062 1.283h2.61c.883.013.883-1.295 0-1.283h-.653v-1.924zm0 3.848v1.924h-.714c-.87.04-.809 1.322.062 1.282h2.61c.883.013.883-1.295 0-1.282h-.653v-1.924zm0 3.847v1.924h-.714c-.87.04-.809 1.323.062 1.283h2.61c.883.013.883-1.295 0-1.283h-.653v-1.924z" style="line-height:normal;-inkscape-font-specification:'Bitstream Vera Sans';text-indent:0;text-align:start;text-transform:none;block-progression:tb" fill="#404040"/><path d="M22.654 2.862v24.934h-.515V2.862z" fill="#404040" fill-rule="evenodd" stroke="#404040" stroke-width=".585"/></svg>