<?xml version="1.0" encoding="UTF-8" standalone="no"?><svg xmlns="http://www.w3.org/2000/svg" viewBox="-4.62 -4.62 39.23 39.23" width="30" height="30"><defs><linearGradient id="bdf"><stop offset="0" stop-color="#de5644"/><stop offset=".5" stop-color="#da4531"/><stop offset="1" stop-color="#ce3a28"/></linearGradient><linearGradient id="bde"><stop offset="0" stop-color="#0aa561"/><stop offset=".5" stop-color="#009b58"/><stop offset="1" stop-color="#00914b"/></linearGradient><linearGradient id="bdd"><stop offset="0" stop-color="#1a6fef"/><stop offset=".25" stop-color="#1e72ef"/><stop offset=".5" stop-color="#166bec"/><stop offset=".75" stop-color="#1267e9"/><stop offset="1" stop-color="#1063e5" stop-opacity=".87"/></linearGradient><linearGradient id="bdc"><stop offset="0" stop-color="#ffc01a"/><stop offset=".5" stop-color="#ffba03"/><stop offset="1" stop-color="#ffb300"/></linearGradient><linearGradient id="bdb"><stop offset="0" stop-color="#de5744"/><stop offset=".5" stop-color="#db4632"/><stop offset="1" stop-color="#d13d29"/></linearGradient><linearGradient id="bda"><stop offset="0" stop-color="#196eef"/><stop offset=".5" stop-color="#186dee"/><stop offset="1" stop-color="#1065e7"/></linearGradient></defs><g transform="matrix(.05572 0 0 .05447 2.74 3.012)" fill="#7e7e7e"><path d="M415.035 142.109l21.016-21.016c8.487-8.487 13.162-19.772 13.162-31.775s-4.675-23.288-13.162-31.775L391.66 13.15c-17.521-17.519-46.028-17.521-63.551 0L47.611 293.649a15 15 0 0 0-3.627 5.873L.767 429.469a14.999 14.999 0 0 0 18.966 18.967l129.946-43.218a14.994 14.994 0 0 0 5.873-3.627l238.269-238.269 3.153 3.153c9.56 9.559 14.131 22.741 12.543 36.167-1.589 13.426-9.11 25.178-20.638 32.243l-71.469 43.804c-29.461 18.056-47.874 49.449-49.256 83.976-.331 8.277 6.11 15.256 14.389 15.587.204.008.407.013.61.013 8.007 0 14.654-6.328 14.978-14.401a73.207 73.207 0 0 1 34.956-59.597l71.47-43.804c19.41-11.897 32.077-31.688 34.752-54.296 2.675-22.608-5.023-44.807-21.122-60.905l-3.152-3.153zM349.322 34.364c5.824-5.825 15.301-5.824 21.125 0l44.392 44.393a14.84 14.84 0 0 1 4.375 10.562c0 3.99-1.554 7.741-4.375 10.563l-35.865 35.865-65.516-65.517 35.864-35.866zM66.55 326.731l55.921 55.921-83.786 27.866 27.865-83.787zm74.861 46.576l-65.516-65.516L299.316 84.37l65.516 65.517-223.421 223.42z"/><path d="M87.677 447.89c.023-2.76 60.698-4.493 135.434-3.87 74.736.624 135.373 3.37 135.35 6.13-.023 2.76-60.697 4.493-135.433 3.87-74.737-.624-135.374-3.37-135.35-6.13z" fill-rule="evenodd"/></g></svg>