<?xml version="1.0" encoding="UTF-8" standalone="no"?><svg xmlns="http://www.w3.org/2000/svg" viewBox="-7.69 -7.69 65.38 65.38" width="30" height="30"><defs><linearGradient id="bef"><stop offset="0" stop-color="#de5644"/><stop offset=".5" stop-color="#da4531"/><stop offset="1" stop-color="#ce3a28"/></linearGradient><linearGradient id="bee"><stop offset="0" stop-color="#0aa561"/><stop offset=".5" stop-color="#009b58"/><stop offset="1" stop-color="#00914b"/></linearGradient><linearGradient id="bed"><stop offset="0" stop-color="#1a6fef"/><stop offset=".25" stop-color="#1e72ef"/><stop offset=".5" stop-color="#166bec"/><stop offset=".75" stop-color="#1267e9"/><stop offset="1" stop-color="#1063e5" stop-opacity=".87"/></linearGradient><linearGradient id="bec"><stop offset="0" stop-color="#ffc01a"/><stop offset=".5" stop-color="#ffba03"/><stop offset="1" stop-color="#ffb300"/></linearGradient><linearGradient id="beb"><stop offset="0" stop-color="#de5744"/><stop offset=".5" stop-color="#db4632"/><stop offset="1" stop-color="#d13d29"/></linearGradient><linearGradient id="bea"><stop offset="0" stop-color="#196eef"/><stop offset=".5" stop-color="#186dee"/><stop offset="1" stop-color="#1065e7"/></linearGradient></defs><g transform="matrix(.0561 0 0 .06223 1.312 -2.77)" fill="#7e7e7e"><path d="M460.543 193.01c-2.898.447-5.684 11.118-11.285 16.677-4.096 4.012-9.209 3.762-11.925 8.721-1.031 1.853-.697 5.016-1.867 8.053-2.285 6.074-10.338 6.617-10.338 13.235-.027 7.147 6.716 8.512 12.553 13.583 4.556 4.082 5.001 6.896 10.518 8.875 4.71 1.602 11.717-3.636 18.028-1.756 5.182 1.547 10.142 2.661 11.312 7.983 1.031 4.904-.07 12.51-6.352 11.633-2.118-.237-11.3-3.33-22.584-2.131-13.61 1.546-29.145 5.99-30.663 21.162-.836 8.484 9.654 18.487 19.783 16.453 7.007-1.38 3.692-9.64 7.509-13.653 5.001-5.14 33.338 17.944 59.683 17.944 11.09 0 19.337-2.8 27.53-11.382.765-.655 1.699-2.062 2.883-2.146 1.114.084 3.065 1.184 3.706 1.658 21.218 17.052 37.253 51.255 115.228 51.659 10.965.055 23.461 5.294 33.66 14.6 9.097 8.415 14.419 21.497 19.587 34.773 7.802 19.923 21.79 39.302 42.993 60.868 1.157 1.156 18.613 14.726 20.006 15.743.223.139 1.505 3.204 1.059 4.917-.516 12.93-2.396 50.53 25.634 52.23 6.855.349 5.057-4.472 5.057-7.787-.014-6.548-1.212-13.054 2.243-19.756 4.723-9.222-10.017-13.472-9.585-33.408.307-14.865-12.176-12.33-18.515-23.656-3.65-6.561-6.896-10.044-6.66-18.069 1.422-45.166-9.612-74.84-15.115-82.127-4.29-5.503-7.843-7.69-3.915-10.24 23.392-15.45 28.7-29.828 28.7-29.828 12.44-29.242 23.628-55.949 39.05-67.707 3.107-2.424 11.076-8.373 15.966-10.714 14.39-6.785 21.97-10.894 26.15-14.962 6.617-6.45 11.841-19.895 5.502-28.045-7.885-10.059-21.524-2.076-27.543 1.49-43.007 25.524-49.346 70.55-64.238 96.408-11.884 20.66-31.207 35.832-48.483 37.072-12.956.961-26.916-1.658-40.82-7.76-33.811-14.823-52.313-33.965-56.673-37.35-9.084-7.008-79.606-76.235-136.74-79.063 0 0-7.09-14.196-8.874-14.433-4.18-.53-8.457 8.484-11.521 9.53-2.884.96-7.733-9.767-10.644-9.293M209.02 606.182c-5.377-.125-9.947-4.542-9.947-10.003l.014-178.214h-58.735v196.45c0 9.627 7.801 17.485 17.372 17.485h102.663c9.64 0 17.345-7.858 17.345-17.484v-196.45h-58.68l-.056 178.213c0 5.461-4.57 9.878-9.975 10.003M405.68 417.965h-88.898c-10.518 0-19.086 8.554-19.086 19.184V631.9h58.791V453.255c.042-5.475 4.472-9.808 9.934-9.808 5.489 0 9.891 4.235 10.016 9.655V631.9h58.555V453.1c.07-5.419 4.472-9.654 9.947-9.654 5.434 0 9.92 4.333 9.961 9.808V631.9h58.792V437.15c0-10.63-8.582-19.185-19.1-19.185H405.68M61.75 453.63c.041-5.949-4.807-10.184-9.948-10.184h-9.975v108.207h9.975c5.183 0 9.989-4.123 9.947-10.044V453.63zm39.412 124.508H41.827V631.9h-58.708V417.965h118.419c10.602 0 18.877 8.61 18.877 19.268V558.87c0 10.672-8.595 19.268-19.253 19.268M715.158 584.058c-11.8 0-21.706 10.198-21.706 22.556 0 12.399 9.906 22.513 22.082 22.513 12.079 0 21.859-10.114 21.859-22.513 0-12.385-9.78-22.556-21.86-22.556h-.375zm26.442 22.486c0 14.53-11.647 26.345-26.066 26.345-14.573 0-26.275-11.73-26.275-26.345 0-14.336 11.702-26.317 25.843-26.317 14.851 0 26.498 11.62 26.498 26.317"/><path d="M712.817 604.872c4.082 0 6.228-1.449 6.228-4.346 0-2.578-2.076-3.901-6.047-3.901h-1.17v8.247h.99zm15.032 16.913h-7.007l-9.014-11.995v11.995h-5.726v-30.329h6.019c8.178 0 12.524 3.093 12.524 9 0 3.943-2.563 7.44-6.144 8.484l-.418.154 9.766 12.691M612.258 551.695v-98.51c-.139-5.448-4.527-9.627-10.002-9.627-5.42 0-9.906 4.346-9.948 9.78v98.357h19.95zm0 80.205v-53.707h-19.95V631.9h-58.68V437.15c0-10.63 8.568-19.185 19.087-19.185h99.137c10.547 0 19.114 8.554 19.114 19.184V631.9h-58.708"/></g></svg>