<?xml version="1.0" encoding="UTF-8" standalone="no"?><svg xmlns="http://www.w3.org/2000/svg" viewBox="-4.62 -4.62 39.23 39.23" width="30" height="30"><defs><linearGradient id="bif"><stop offset="0" stop-color="#de5644"/><stop offset=".5" stop-color="#da4531"/><stop offset="1" stop-color="#ce3a28"/></linearGradient><linearGradient id="bie"><stop offset="0" stop-color="#0aa561"/><stop offset=".5" stop-color="#009b58"/><stop offset="1" stop-color="#00914b"/></linearGradient><linearGradient id="bid"><stop offset="0" stop-color="#1a6fef"/><stop offset=".25" stop-color="#1e72ef"/><stop offset=".5" stop-color="#166bec"/><stop offset=".75" stop-color="#1267e9"/><stop offset="1" stop-color="#1063e5" stop-opacity=".87"/></linearGradient><linearGradient id="bic"><stop offset="0" stop-color="#ffc01a"/><stop offset=".5" stop-color="#ffba03"/><stop offset="1" stop-color="#ffb300"/></linearGradient><linearGradient id="bib"><stop offset="0" stop-color="#de5744"/><stop offset=".5" stop-color="#db4632"/><stop offset="1" stop-color="#d13d29"/></linearGradient><linearGradient id="bia"><stop offset="0" stop-color="#196eef"/><stop offset=".5" stop-color="#186dee"/><stop offset="1" stop-color="#1065e7"/></linearGradient></defs><path overflow="visible" d="M5.729 1.821v2.225c0 .915.71 1.668 1.57 1.668h1.048v3.737c0 1.673.784 3.244 2.094 4.172l2.193 1.546-2.193 1.547c-1.31.929-2.094 2.5-2.094 4.172v3.736H7.299c-.86 0-1.57.754-1.57 1.67v2.224h19.898v-2.225c0-.915-.71-1.669-1.57-1.669h-1.048v-3.736c0-1.673-.784-3.243-2.094-4.172l-2.193-1.547 2.193-1.546c1.31-.928 2.094-2.499 2.094-4.172V5.714h1.047c.862 0 1.571-.753 1.571-1.668V1.82H5.73zm1.047 1.113H24.58v1.112c0 .314-.228.556-.524.556H7.3c-.295 0-.523-.242-.523-.556V2.934zm2.618 2.78h12.568v3.737c0 1.303-.617 2.511-1.637 3.233L17.478 14.7l-.655.47.655.469 2.847 2.016c1.02.722 1.637 1.93 1.637 3.233v3.736H9.394v-3.736c0-1.302.617-2.51 1.637-3.233l2.847-2.016.654-.47-.654-.469-2.847-2.016c-1.02-.722-1.637-1.93-1.637-3.233V5.714zM7.3 25.737h16.757c.296 0 .524.242.524.556v1.112H6.776v-1.112c0-.314.228-.556.523-.556z" style="line-height:normal;-inkscape-font-specification:'Bitstream Vera Sans';text-indent:0;text-align:start;text-transform:none;block-progression:tb" color="#000" font-family="Bitstream Vera Sans" fill="#404040"/></svg>