<?xml version="1.0" encoding="UTF-8" standalone="no"?><svg xmlns="http://www.w3.org/2000/svg" viewBox="-4.62 -4.62 39.23 39.23" width="30" height="30"><defs><linearGradient id="bjf"><stop offset="0" stop-color="#de5644"/><stop offset=".5" stop-color="#da4531"/><stop offset="1" stop-color="#ce3a28"/></linearGradient><linearGradient id="bje"><stop offset="0" stop-color="#0aa561"/><stop offset=".5" stop-color="#009b58"/><stop offset="1" stop-color="#00914b"/></linearGradient><linearGradient id="bjd"><stop offset="0" stop-color="#1a6fef"/><stop offset=".25" stop-color="#1e72ef"/><stop offset=".5" stop-color="#166bec"/><stop offset=".75" stop-color="#1267e9"/><stop offset="1" stop-color="#1063e5" stop-opacity=".87"/></linearGradient><linearGradient id="bjc"><stop offset="0" stop-color="#ffc01a"/><stop offset=".5" stop-color="#ffba03"/><stop offset="1" stop-color="#ffb300"/></linearGradient><linearGradient id="bjb"><stop offset="0" stop-color="#de5744"/><stop offset=".5" stop-color="#db4632"/><stop offset="1" stop-color="#d13d29"/></linearGradient><linearGradient id="bja"><stop offset="0" stop-color="#196eef"/><stop offset=".5" stop-color="#186dee"/><stop offset="1" stop-color="#1065e7"/></linearGradient></defs><g transform="translate(81.78 -32.161)" fill="#404040"><g transform="matrix(.81547 0 0 .75316 -81.75 32.828)"><path d="M29.343 36.822H7.479a2.503 2.503 0 0 1-2.5-2.5V6.029c0-1.378 1.122-2.5 2.5-2.5h3.682a.5.5 0 0 1 0 1H7.479c-.827 0-1.5.673-1.5 1.5v28.293c0 .827.673 1.5 1.5 1.5h21.863c.827 0 1.5-.673 1.5-1.5V6.029c0-.827-.673-1.5-1.5-1.5H25.66a.5.5 0 0 1 0-1h3.682c1.378 0 2.5 1.122 2.5 2.5v28.293a2.501 2.501 0 0 1-2.499 2.5z"/><path d="M25.165 5.472l-14.5-.11c-.276-.002.046.107.051-.169l.055-2.891c.006-.276-.272-.114.004-.114h4.995A2.693 2.693 0 0 1 18.411 0c1.311 0 2.406.944 2.641 2.188h4.609c.276 0 .224.114.224.39v2.726c0 .276-.72.168-.72.168zM11.44 4.362l13.5.055V3.188h-4.342a.5.5 0 0 1-.5-.5 1.688 1.688 0 0 0-3.375 0 .5.5 0 0 1-.5.5H11.66l-.055 1.78z"/></g><path d="M-73.07 37.71h6.115l6.392.082z" fill-rule="evenodd" stroke="#000" stroke-width=".795"/><g transform="matrix(.03305 0 0 .03616 -75.003 41.063)"><path d="M487.2 69.7c0 12.9-10.5 23.4-23.4 23.4h-322c-12.9 0-23.4-10.5-23.4-23.4 0-12.9 10.5-23.4 23.4-23.4h322.1c12.9.1 23.3 10.5 23.3 23.4zm-23.3 92.6H141.8c-12.9 0-23.4 10.5-23.4 23.4 0 12.9 10.5 23.4 23.4 23.4h322.1c12.9 0 23.4-10.5 23.4-23.4-.1-12.9-10.5-23.4-23.4-23.4zm0 116H141.8c-12.9 0-23.4 10.5-23.4 23.4 0 12.9 10.5 23.4 23.4 23.4h322.1c12.9 0 23.4-10.5 23.4-23.4-.1-12.9-10.5-23.4-23.4-23.4zm0 116H141.8c-12.9 0-23.4 10.5-23.4 23.4 0 12.9 10.5 23.4 23.4 23.4h322.1c12.9 0 23.4-10.5 23.4-23.4-.1-12.9-10.5-23.4-23.4-23.4zM38.9 30.8C17.4 30.8 0 48.2 0 69.7s17.4 39 38.9 39 38.9-17.5 38.9-39-17.4-38.9-38.9-38.9zm0 116C17.4 146.8 0 164.2 0 185.7s17.4 38.9 38.9 38.9 38.9-17.4 38.9-38.9-17.4-38.9-38.9-38.9zm0 116C17.4 262.8 0 280.2 0 301.7s17.4 38.9 38.9 38.9 38.9-17.4 38.9-38.9-17.4-38.9-38.9-38.9zm0 115.9C17.4 378.7 0 396.1 0 417.6s17.4 38.9 38.9 38.9 38.9-17.4 38.9-38.9c0-21.4-17.4-38.9-38.9-38.9z"/></g></g></svg>