<?xml version="1.0" encoding="UTF-8" standalone="no"?><svg xmlns="http://www.w3.org/2000/svg" viewBox="-3.08 -3.08 26.15 26.15" width="30" height="30"><defs><linearGradient id="blf"><stop offset="0" stop-color="#de5644"/><stop offset=".5" stop-color="#da4531"/><stop offset="1" stop-color="#ce3a28"/></linearGradient><linearGradient id="ble"><stop offset="0" stop-color="#0aa561"/><stop offset=".5" stop-color="#009b58"/><stop offset="1" stop-color="#00914b"/></linearGradient><linearGradient id="bld"><stop offset="0" stop-color="#1a6fef"/><stop offset=".25" stop-color="#1e72ef"/><stop offset=".5" stop-color="#166bec"/><stop offset=".75" stop-color="#1267e9"/><stop offset="1" stop-color="#1063e5" stop-opacity=".87"/></linearGradient><linearGradient id="blc"><stop offset="0" stop-color="#ffc01a"/><stop offset=".5" stop-color="#ffba03"/><stop offset="1" stop-color="#ffb300"/></linearGradient><linearGradient id="blb"><stop offset="0" stop-color="#de5744"/><stop offset=".5" stop-color="#db4632"/><stop offset="1" stop-color="#d13d29"/></linearGradient><linearGradient id="bla"><stop offset="0" stop-color="#196eef"/><stop offset=".5" stop-color="#186dee"/><stop offset="1" stop-color="#1065e7"/></linearGradient></defs><path d="M19.021 4.5c-.664.31-1.328.541-2.065.619.737-.464 1.328-1.236 1.623-2.086-.738.464-1.476.773-2.287.927-.738-.772-1.697-1.235-2.73-1.235-1.991 0-3.614 1.699-3.614 3.784 0 .309 0 .618.074.85-3.024-.155-5.68-1.623-7.45-3.94-.369.541-.517 1.236-.517 1.931 0 1.313.664 2.472 1.623 3.167-.59-.078-1.18-.232-1.623-.464v.077c0 1.854 1.254 3.398 2.877 3.707-.295.078-.59.155-.959.155-.221 0-.442 0-.664-.077.443 1.544 1.77 2.625 3.394 2.625-1.254 1.004-2.803 1.622-4.5 1.622-.295 0-.59 0-.885-.077a9.992 9.992 0 0 0 5.532 1.699c6.713 0 10.327-5.792 10.327-10.812V6.51c.738-.54 1.328-1.236 1.844-2.008" fill="#c9c9c9"/></svg>