<?xml version="1.0" encoding="UTF-8" standalone="no"?><svg xmlns="http://www.w3.org/2000/svg" viewBox="-3.08 -3.08 26.15 26.15" width="30" height="30"><defs><linearGradient id="bmf"><stop offset="0" stop-color="#de5644"/><stop offset=".5" stop-color="#da4531"/><stop offset="1" stop-color="#ce3a28"/></linearGradient><linearGradient id="bme"><stop offset="0" stop-color="#0aa561"/><stop offset=".5" stop-color="#009b58"/><stop offset="1" stop-color="#00914b"/></linearGradient><linearGradient id="bmd"><stop offset="0" stop-color="#1a6fef"/><stop offset=".25" stop-color="#1e72ef"/><stop offset=".5" stop-color="#166bec"/><stop offset=".75" stop-color="#1267e9"/><stop offset="1" stop-color="#1063e5" stop-opacity=".87"/></linearGradient><linearGradient id="bmc"><stop offset="0" stop-color="#ffc01a"/><stop offset=".5" stop-color="#ffba03"/><stop offset="1" stop-color="#ffb300"/></linearGradient><linearGradient id="bmb"><stop offset="0" stop-color="#de5744"/><stop offset=".5" stop-color="#db4632"/><stop offset="1" stop-color="#d13d29"/></linearGradient><linearGradient id="bma"><stop offset="0" stop-color="#196eef"/><stop offset=".5" stop-color="#186dee"/><stop offset="1" stop-color="#1065e7"/></linearGradient></defs><path d="M17.114 5.584c-.52.24-1.041.419-1.62.479.579-.36 1.042-.958 1.273-1.616a5.152 5.152 0 0 1-1.794.718c-.579-.598-1.331-.957-2.141-.957-1.563 0-2.836 1.316-2.836 2.932 0 .24 0 .479.058.658a7.832 7.832 0 0 1-5.846-3.052c-.289.42-.405.958-.405 1.496 0 1.018.521 1.915 1.274 2.454-.463-.06-.926-.18-1.274-.36v.06c0 1.437.984 2.634 2.257 2.873-.231.06-.463.12-.752.12-.174 0-.347 0-.52-.06.346 1.197 1.388 2.035 2.661 2.035-.983.778-2.199 1.256-3.53 1.256-.231 0-.463 0-.694-.06a7.909 7.909 0 0 0 4.34 1.317c5.267 0 8.103-4.488 8.103-8.378V7.14c.578-.419 1.041-.958 1.446-1.556" fill="#c9c9c9"/></svg>