<?xml version="1.0" encoding="UTF-8" standalone="no"?><svg xmlns="http://www.w3.org/2000/svg" viewBox="-3.08 -3.08 26.15 26.15" width="30" height="30"><defs><linearGradient id="bkf"><stop offset="0" stop-color="#de5644"/><stop offset=".5" stop-color="#da4531"/><stop offset="1" stop-color="#ce3a28"/></linearGradient><linearGradient id="bke"><stop offset="0" stop-color="#0aa561"/><stop offset=".5" stop-color="#009b58"/><stop offset="1" stop-color="#00914b"/></linearGradient><linearGradient id="bkd"><stop offset="0" stop-color="#1a6fef"/><stop offset=".25" stop-color="#1e72ef"/><stop offset=".5" stop-color="#166bec"/><stop offset=".75" stop-color="#1267e9"/><stop offset="1" stop-color="#1063e5" stop-opacity=".87"/></linearGradient><linearGradient id="bkc"><stop offset="0" stop-color="#ffc01a"/><stop offset=".5" stop-color="#ffba03"/><stop offset="1" stop-color="#ffb300"/></linearGradient><linearGradient id="bkb"><stop offset="0" stop-color="#de5744"/><stop offset=".5" stop-color="#db4632"/><stop offset="1" stop-color="#d13d29"/></linearGradient><linearGradient id="bka"><stop offset="0" stop-color="#196eef"/><stop offset=".5" stop-color="#186dee"/><stop offset="1" stop-color="#1065e7"/></linearGradient></defs><path d="M14.678 6c-.354.184-.708.32-1.101.366.393-.274.708-.731.865-1.234a3.291 3.291 0 0 1-1.22.549c-.393-.458-.904-.732-1.455-.732-1.062 0-1.927 1.006-1.927 2.24 0 .183 0 .366.039.503-1.613-.091-3.029-.96-3.973-2.331-.197.32-.275.731-.275 1.143 0 .777.354 1.463.865 1.874-.315-.046-.63-.137-.865-.274v.046c0 1.097.668 2.011 1.534 2.194a1.739 1.739 0 0 1-.512.091c-.118 0-.236 0-.354-.045.236.914.944 1.554 1.81 1.554-.669.595-1.495.96-2.4.96-.157 0-.314 0-.472-.045.866.64 1.888 1.005 2.95 1.005 3.58 0 5.508-3.429 5.508-6.4v-.275c.393-.32.708-.731.983-1.188" fill="#969696"/></svg>