<?xml version="1.0" encoding="UTF-8" standalone="no"?><svg xmlns="http://www.w3.org/2000/svg" viewBox="-4.62 -4.62 39.23 39.23" width="30" height="30"><defs><linearGradient id="bnf"><stop offset="0" stop-color="#de5644"/><stop offset=".5" stop-color="#da4531"/><stop offset="1" stop-color="#ce3a28"/></linearGradient><linearGradient id="bne"><stop offset="0" stop-color="#0aa561"/><stop offset=".5" stop-color="#009b58"/><stop offset="1" stop-color="#00914b"/></linearGradient><linearGradient id="bnd"><stop offset="0" stop-color="#1a6fef"/><stop offset=".25" stop-color="#1e72ef"/><stop offset=".5" stop-color="#166bec"/><stop offset=".75" stop-color="#1267e9"/><stop offset="1" stop-color="#1063e5" stop-opacity=".87"/></linearGradient><linearGradient id="bnc"><stop offset="0" stop-color="#ffc01a"/><stop offset=".5" stop-color="#ffba03"/><stop offset="1" stop-color="#ffb300"/></linearGradient><linearGradient id="bnb"><stop offset="0" stop-color="#de5744"/><stop offset=".5" stop-color="#db4632"/><stop offset="1" stop-color="#d13d29"/></linearGradient><linearGradient id="bna"><stop offset="0" stop-color="#196eef"/><stop offset=".5" stop-color="#186dee"/><stop offset="1" stop-color="#1065e7"/></linearGradient></defs><g transform="matrix(.3418 0 0 .37722 -16.53 -618.56)"><g transform="matrix(.14237 0 0 .17141 57.57 1637.894)" fill="#404040"><path d="M487.267 54.99L1.176 56.028c-5.523.012-.65-1.752-.657 3.771L0 431.24c-.008 5.523-4.866 2.185.657 2.214l490.243 2.595c-.025-112.566-.9-250.83-.9-371.058 0-5.523 2.789-10.012-2.733-10zM470 74.99v48.077H20V74.99zM20 415.01V143.067h450V415.01z"/><path d="M62.574 109.028h5.5c5.522 0 10-4.476 10-10 0-5.522-4.478-10-10-10h-5.5c-5.522 0-10 4.478-10 10 0 5.524 4.478 10 10 10zM103.741 109.028h5.5c5.522 0 10-4.476 10-10 0-5.522-4.478-10-10-10h-5.5c-5.523 0-10 4.478-10 10 0 5.524 4.478 10 10 10zM144.908 109.028h5.5c5.522 0 10-4.476 10-10 0-5.522-4.478-10-10-10h-5.5c-5.523 0-10 4.478-10 10 0 5.524 4.478 10 10 10z"/></g><path fill="none" stroke="#404040" stroke-width="2.15" d="M84.621 1667.036h14.445v15.081H84.621z"/><path fill="none" stroke="#404040" stroke-width="2.176" d="M104.019 1667.049h14.419v15.478h-14.419z"/><path fill="none" stroke="#404040" stroke-width="2.15" d="M65.447 1667.036h14.445v15.081H65.447zM84.833 1688.646h14.445v15.081H84.833z"/><path fill="none" stroke="#404040" stroke-width="2.176" d="M104.231 1688.659h14.419v15.478h-14.419z"/><path fill="none" stroke="#404040" stroke-width="2.15" d="M65.659 1688.646h14.445v15.081H65.659z"/></g></svg>