<?xml version="1.0" encoding="UTF-8" standalone="no"?>
<!-- Generator: Adobe Illustrator 18.0.0, SVG Export Plug-In . SVG Version: 6.00 Build 0)  -->

<svg
   xmlns:dc="http://purl.org/dc/elements/1.1/"
   xmlns:cc="http://creativecommons.org/ns#"
   xmlns:rdf="http://www.w3.org/1999/02/22-rdf-syntax-ns#"
   xmlns:svg="http://www.w3.org/2000/svg"
   xmlns="http://www.w3.org/2000/svg"
   xmlns:sodipodi="http://sodipodi.sourceforge.net/DTD/sodipodi-0.dtd"
   xmlns:inkscape="http://www.inkscape.org/namespaces/inkscape"
   version="1.1"
   id="Layer_1"
   x="0px"
   y="0px"
   viewBox="0 0 36 36"
   enable-background="new 0 0 64 64"
   xml:space="preserve"
   inkscape:version="0.91 r13725"
   sodipodi:docname="chat.svg"
   width="36"
   height="36"><metadata
     id="metadata21"><rdf:RDF><cc:Work
         rdf:about=""><dc:format>image/svg+xml</dc:format><dc:type
           rdf:resource="http://purl.org/dc/dcmitype/StillImage" /><dc:title /></cc:Work></rdf:RDF></metadata><defs
     id="defs19" /><sodipodi:namedview
     pagecolor="#ffffff"
     bordercolor="#666666"
     borderopacity="1"
     objecttolerance="10"
     gridtolerance="10"
     guidetolerance="10"
     inkscape:pageopacity="0"
     inkscape:pageshadow="2"
     inkscape:window-width="1859"
     inkscape:window-height="1056"
     id="namedview17"
     showgrid="false"
     inkscape:zoom="14.75"
     inkscape:cx="1.2239833"
     inkscape:cy="22.355326"
     inkscape:window-x="61"
     inkscape:window-y="24"
     inkscape:window-maximized="1"
     inkscape:current-layer="Layer_1"
     showborder="true" /><g
     id="g3"
     style="fill:#c1cfd9;fill-opacity:1"
     transform="matrix(0.45465516,0,0.01841443,0.47007641,2.6301764,2.014895)"><g
       id="g5"
       style="fill:#c1cfd9;fill-opacity:1"><path
         d="m 15,44.5 c 2.2,0.6 4.5,1 7,1 12.2,0 22,-8.1 22,-18 0,-9.9 -9.8,-18 -22,-18 -12.2,0 -22,8.1 -22,18 0,5.6 3.1,10.7 8,14 0,0 0,2.6 -2.1,5.2 -0.6,0.7 0,1.8 0.9,1.6 5.4,-0.8 8.2,-3.8 8.2,-3.8 z"
         id="path7"
         style="fill:#c1cfd9;fill-opacity:1"
         inkscape:connector-curvature="0" /></g></g><g
     id="g9"
     style="fill:#c1cfd9;fill-opacity:1"
     transform="matrix(0.45465516,0,0.01841443,0.47007641,2.3381914,2.2987257)"><g
       id="g11"
       style="fill:#c1cfd9;fill-opacity:1"><g
         id="g13"
         style="fill:#c1cfd9;fill-opacity:1"><path
           d="M 64,33 C 64,23.4 57.3,15.6 43.4,15 46.3,18.5 48,22.8 48,27.5 48,37.1 40.7,45.3 30.5,48.3 33.8,50 37.8,51 42,51 c 2.5,0 4.8,-0.4 7,-1 0,0 2.8,3 8.1,3.8 0.9,0.1 1.5,-0.9 0.9,-1.6 -2,-2.6 -2,-5.2 -2,-5.2 4.9,-3.3 8,-8.4 8,-14 z"
           id="path15"
           style="fill:#c1cfd9;fill-opacity:1"
           inkscape:connector-curvature="0" /></g></g></g></svg>