<?xml version="1.0" encoding="UTF-8" standalone="no"?>
<!-- Generator: Adobe Illustrator 16.0.0, SVG Export Plug-In . SVG Version: 6.00 Build 0)  -->

<svg
   xmlns:osb="http://www.openswatchbook.org/uri/2009/osb"
   xmlns:dc="http://purl.org/dc/elements/1.1/"
   xmlns:cc="http://creativecommons.org/ns#"
   xmlns:rdf="http://www.w3.org/1999/02/22-rdf-syntax-ns#"
   xmlns:svg="http://www.w3.org/2000/svg"
   xmlns="http://www.w3.org/2000/svg"
   xmlns:sodipodi="http://sodipodi.sourceforge.net/DTD/sodipodi-0.dtd"
   xmlns:inkscape="http://www.inkscape.org/namespaces/inkscape"
   version="1.1"
   id="Capa_1"
   x="0px"
   y="0px"
   width="36"
   height="36"
   viewBox="0 0 42.313992 42.313992"
   xml:space="preserve"
   inkscape:version="0.91 r13725"
   sodipodi:docname="speedometr-hov.svg"><metadata
     id="metadata45"><rdf:RDF><cc:Work
         rdf:about=""><dc:format>image/svg+xml</dc:format><dc:type
           rdf:resource="http://purl.org/dc/dcmitype/StillImage" /><dc:title></dc:title></cc:Work></rdf:RDF></metadata><defs
     id="defs43"><linearGradient
       id="linearGradient5625"
       osb:paint="solid"><stop
         style="stop-color:#000000;stop-opacity:1;"
         offset="0"
         id="stop5627" /></linearGradient></defs><sodipodi:namedview
     pagecolor="#ffffff"
     bordercolor="#666666"
     borderopacity="1"
     objecttolerance="10"
     gridtolerance="10"
     guidetolerance="10"
     inkscape:pageopacity="0"
     inkscape:pageshadow="2"
     inkscape:window-width="1859"
     inkscape:window-height="1056"
     id="namedview41"
     showgrid="false"
     inkscape:zoom="10.429825"
     inkscape:cx="21.335574"
     inkscape:cy="-2.1276742"
     inkscape:window-x="61"
     inkscape:window-y="24"
     inkscape:window-maximized="1"
     inkscape:current-layer="Capa_1" /><g
     id="g3"
     transform="matrix(0.06323649,0,0,0.06175956,1.7654605,4.2307552)"><g
       id="g5"><path
         d="M 300.899,36.062387 C 134.51773,34.935227 50.247592,114.17885 50.487341,317.12607 50.68366,483.30995 136.51912,551.31066 302.70212,551.31066 c 166.183,0 255.82202,-86.03278 255.82202,-252.21578 0,-166.182 -94.10922,-261.924745 -257.62514,-263.032493 z M 482.186,480.02 c -0.324,0.396 -0.604,0.822 -0.977,1.193 -0.369,0.369 -0.795,0.648 -1.193,0.977 -46.084,45.537 -109.364,73.71 -179.117,73.71 -69.75,0 -133.024,-28.17 -179.108,-73.703 -0.401,-0.326 -0.829,-0.609 -1.203,-0.982 -0.376,-0.375 -0.658,-0.805 -0.985,-1.205 C 74.07,433.924 51.309358,372.45112 51.309358,302.70112 51.309358,232.95812 74.067,167.88 119.597,121.797 c 0.33,-0.404 0.612,-0.835 0.988,-1.212 0.376,-0.377 -10.01372,1.14512 -9.61072,0.81512 C 157.06228,75.873119 231.155,45.9 300.899,45.9 c 69.75,0 133.027,28.173 179.111,73.706 0.4,0.328 0.826,0.606 1.199,0.979 0.373,0.373 0.652,0.799 0.98,1.199 45.535,46.084 73.709,109.361 73.709,179.114 0.002,69.756 -28.173,133.034 -73.712,179.122 z"
         id="path7"
         inkscape:connector-curvature="0"
         style="fill:#ffffff;fill-opacity:1"
         sodipodi:nodetypes="ssssscccscscscscscsccc" /><path
         d="m 483.48,285.599 41.238,0 c -3.41,-50.374 -23.506,-96.219 -54.811,-132.073 l -29.088,29.088 c -2.986,2.986 -6.902,4.479 -10.816,4.479 -3.914,0 -7.834,-1.493 -10.818,-4.479 -5.975,-5.977 -5.975,-15.664 0,-21.637 l 29.086,-29.085 C 412.417,100.588 366.576,80.493 316.201,77.081 l 0,41.239 c 0,8.449 -6.85,15.3 -15.299,15.3 -8.449,0 -15.3,-6.852 -15.3,-15.3 l 0,-41.238 c -50.374,3.412 -96.216,23.507 -132.073,54.811 l 29.085,29.085 c 5.976,5.976 5.976,15.664 0,21.637 -2.99,2.986 -6.903,4.479 -10.82,4.479 -3.917,0 -7.831,-1.493 -10.82,-4.479 L 131.889,153.53 C 100.585,189.384 80.493,235.226 77.081,285.6 l 41.239,0 c 8.449,0 15.3,6.851 15.3,15.299 0,8.449 -6.852,15.301 -15.3,15.301 l -41.238,0 c 3.412,50.373 9.082045,74.57757 40.38605,110.43057 l -4.4e-4,-5.40779 c 0,0 -7.39343,-0.85583 0.27557,4.33317 190.77034,0.19834 372.74964,10.81872 204.80325,7.8092 168.76791,3.85005 172.61224,-4.92746 143.52424,-34.01546 l -1.56503,27.28488 C 497.61376,457.49598 521.315,366.577 524.727,316.202 l -41.247,0 c -8.453,0 -15.301,-6.852 -15.301,-15.299 0.001,-8.45 6.848,-15.304 15.301,-15.304 z m -147.933,29.36 c -9.262,19.922 -32.919,28.566 -52.843,19.303 -19.923,-9.262 -28.565,-32.919 -19.302,-52.843 5.569,-11.98 16.355,-19.841 28.396,-22.222 l 73.182,-101.91 -30.746,121.638 c 5.938,10.741 6.883,24.054 1.313,36.034 z"
         id="path9"
         inkscape:connector-curvature="0"
         style="fill:#2e3641;fill-opacity:1"
         sodipodi:nodetypes="sccssccccsssccscscccsssccccccccscsccccccc" /></g></g><g
     id="g11"
     transform="matrix(0.09052215,0,0,0.0887594,-6.474547,-4.3469968)" /><g
     id="g13"
     transform="matrix(0.09052215,0,0,0.0887594,-6.474547,-4.3469968)" /><g
     id="g15"
     transform="matrix(0.09052215,0,0,0.0887594,-6.474547,-4.3469968)" /><g
     id="g17"
     transform="matrix(0.09052215,0,0,0.0887594,-6.474547,-4.3469968)" /><g
     id="g19"
     transform="matrix(0.09052215,0,0,0.0887594,-6.474547,-4.3469968)" /><g
     id="g21"
     transform="matrix(0.09052215,0,0,0.0887594,-6.474547,-4.3469968)" /><g
     id="g23"
     transform="matrix(0.09052215,0,0,0.0887594,-6.474547,-4.3469968)" /><g
     id="g25"
     transform="matrix(0.09052215,0,0,0.0887594,-6.474547,-4.3469968)" /><g
     id="g27"
     transform="matrix(0.09052215,0,0,0.0887594,-6.474547,-4.3469968)" /><g
     id="g29"
     transform="matrix(0.09052215,0,0,0.0887594,-6.474547,-4.3469968)" /><g
     id="g31"
     transform="matrix(0.09052215,0,0,0.0887594,-6.474547,-4.3469968)" /><g
     id="g33"
     transform="matrix(0.09052215,0,0,0.0887594,-6.474547,-4.3469968)" /><g
     id="g35"
     transform="matrix(0.09052215,0,0,0.0887594,-6.474547,-4.3469968)" /><g
     id="g37"
     transform="matrix(0.09052215,0,0,0.0887594,-6.474547,-4.3469968)" /><g
     id="g39"
     transform="matrix(0.09052215,0,0,0.0887594,-6.474547,-4.3469968)" /><rect
     style="fill:#2e3641;fill-opacity:1;fill-rule:evenodd;stroke:none;stroke-opacity:1"
     id="rect4173"
     width="23.716774"
     height="1.7817581"
     x="9.1769543"
     y="29.370729"
     ry="0.89087903" /></svg>